<?xml version="1.0" encoding="utf-8"?>
<!-- Generator: Adobe Illustrator 17.0.2, SVG Export Plug-In . SVG Version: 6.00 Build 0)  -->
<!DOCTYPE svg PUBLIC "-//W3C//DTD SVG 1.1//EN" "http://www.w3.org/Graphics/SVG/1.1/DTD/svg11.dtd">
<svg version="1.1" id="Layer_1" xmlns="http://www.w3.org/2000/svg" xmlns:xlink="http://www.w3.org/1999/xlink" x="0px" y="0px"
	 width="400px" height="56px" viewBox="0 0 400 56" enable-background="new 0 0 400 56" xml:space="preserve">
<g>
	<polygon fill="#FFFFFF" points="0,5.436 0,14.626 13.594,14.626 13.594,51.242 23.642,51.242 23.642,14.626 37.236,14.626 
		37.236,5.436 	"/>
	<g>
		<path fill="#FFFFFF" d="M126.118,38.396l6.2-17.446l-17.671,6.098l8.827,2.614L126.118,38.396z M139.381,28.339
			c0,3.873-1.456,7.185-4.37,9.937c-2.913,2.752-6.312,4.128-10.195,4.128c-3.885,0-7.283-1.376-10.196-4.128
			s-4.37-6.065-4.37-9.937c0-3.871,1.457-7.183,4.37-9.936c2.914-2.752,6.311-4.129,10.196-4.129c3.883,0,7.283,1.377,10.195,4.129
			C137.925,21.156,139.381,24.468,139.381,28.339 M149.47,28.374c0-6.454-2.393-11.89-7.176-16.309
			c-4.785-4.419-10.611-6.629-17.479-6.629c-6.869,0-12.695,2.21-17.479,6.629c-4.785,4.42-7.176,9.856-7.176,16.309
			s2.391,11.879,7.176,16.274c4.783,4.396,10.609,6.594,17.479,6.594c6.867,0,12.694-2.198,17.479-6.594
			C147.078,40.253,149.47,34.828,149.47,28.374"/>
		<path fill="#FFFFFF" d="M193.957,30.235c1.724-2.577,2.586-5.543,2.586-8.899c0-4.619-1.551-8.411-4.654-11.378
			c-3.25-3.015-7.511-4.522-12.781-4.522h-22.829v45.806h10.048V37.238h9.013l10.786,14.005h12.56l-11.895-15.318
			C189.844,34.71,192.232,32.813,193.957,30.235 M184.574,16.668c1.28,1.167,1.921,2.724,1.921,4.668
			c0,1.946-0.641,3.502-1.921,4.669c-1.429,1.361-3.472,2.042-6.132,2.042h-12.116V14.626h12.116
			C181.102,14.626,183.146,15.308,184.574,16.668"/>
	</g>
	<rect x="206.414" y="5.436" fill="#FFFFFF" width="10.048" height="45.806"/>
	<g>
		<path fill="#FFFFFF" d="M260.468,47.384c4.215-2.806,6.323-6.476,6.323-11.014c0-4.254-1.611-7.435-4.831-9.539
			c-2.227-1.45-5.614-2.478-10.16-3.086c-6.111-0.888-9.379-1.38-9.805-1.473c-2.654-0.748-3.98-1.988-3.98-3.718
			c0-1.262,0.616-2.361,1.848-3.296c1.563-1.169,3.837-1.754,6.821-1.754c4.263,0,8.288,1.778,12.079,5.331l7.105-6.173
			c-4.927-4.816-11.179-7.225-18.757-7.225c-5.306,0-9.782,1.238-13.429,3.711c-3.837,2.568-5.754,5.835-5.754,9.802
			c0,4.154,1.609,7.258,4.831,9.311c2.226,1.448,5.613,2.522,10.16,3.222c6.015,0.887,9.283,1.401,9.805,1.54
			c2.652,0.747,3.979,1.96,3.979,3.641c0,1.728-0.887,3.104-2.664,4.131c-1.777,1.027-4.204,1.564-7.283,1.61
			c-4.785,0-9.166-2.01-13.145-6.033l-7.318,6.246c5.684,5.751,12.386,8.626,20.108,8.626
			C251.894,51.242,256.583,49.956,260.468,47.384"/>
	</g>
	<polygon fill="#FFFFFF" points="308.9,14.626 308.9,5.436 271.666,5.436 271.666,14.626 285.259,14.626 285.259,51.242 
		295.307,51.242 295.307,14.626 	"/>
	<path fill="#FFFFFF" d="M337.977,32.497h-12.56l6.28-15.61L337.977,32.497z M356.372,51.242L337.755,5.436h-12.19l-18.617,45.806
		h10.713l3.841-9.263h20.317l3.841,9.263H356.372z"/>
	<g>
		<path fill="#FFFFFF" d="M393.677,47.384C397.892,44.578,400,40.907,400,36.37c0-4.254-1.611-7.435-4.831-9.539
			c-2.227-1.45-5.614-2.478-10.16-3.086c-6.111-0.888-9.379-1.38-9.805-1.473c-2.654-0.748-3.98-1.988-3.98-3.718
			c0-1.262,0.616-2.361,1.848-3.296c1.563-1.169,3.837-1.754,6.821-1.754c4.263,0,8.288,1.778,12.079,5.331l7.105-6.173
			c-4.927-4.816-11.179-7.225-18.757-7.225c-5.306,0-9.782,1.238-13.429,3.711c-3.837,2.568-5.754,5.835-5.754,9.802
			c0,4.154,1.609,7.258,4.831,9.311c2.226,1.448,5.613,2.522,10.16,3.222c6.015,0.887,9.283,1.401,9.805,1.54
			c2.652,0.747,3.979,1.96,3.979,3.641c0,1.728-0.887,3.104-2.664,4.131s-4.204,1.564-7.283,1.61c-4.785,0-9.166-2.01-13.145-6.033
			l-7.318,6.246c5.684,5.751,12.386,8.626,20.108,8.626C385.103,51.242,389.792,49.956,393.677,47.384"/>
		<path fill="#FFFFFF" d="M82.343,28.339c0,3.873-1.457,7.184-4.37,9.937c-2.914,2.753-6.312,4.128-10.196,4.128
			s-7.283-1.375-10.195-4.127c-2.914-2.753-4.37-6.065-4.37-9.937c0-3.871,1.456-7.184,4.37-9.936
			c2.913-2.752,6.31-4.129,10.195-4.129c3.884,0,7.283,1.377,10.196,4.129C80.886,21.155,82.342,24.468,82.343,28.339
			 M85.256,12.065c-3.295-3.043-7.096-5.012-11.378-5.96l-6.101-6.023l-6.101,6.023c-4.282,0.947-8.083,2.917-11.378,5.96
			c-4.784,4.419-7.176,9.856-7.176,16.309s2.392,11.879,7.176,16.274c3.468,3.186,7.491,5.201,12.054,6.078l5.425,5.355l5.425-5.355
			c4.562-0.877,8.586-2.892,12.054-6.078c4.784-4.395,7.176-9.821,7.176-16.274C92.432,21.92,90.039,16.484,85.256,12.065"/>
	</g>
</g>
</svg>
